<mxfile host="app.diagrams.net" modified="2023-06-05T18:39:41.364Z" agent="Mozilla/5.0 (Windows NT 10.0; Win64; x64) AppleWebKit/537.36 (KHTML, like Gecko) Chrome/114.0.0.0 Safari/537.36" version="21.3.7" etag="zGGo_8MvZXKSBAVBnX2k" type="github">
  <diagram name="PÃ¡gina-1" id="fSreO4bueVL0Xg5LdOD1">
    <mxGraphModel>
      <root>
        <mxCell id="0" />
        <mxCell id="1" parent="0" />
      </root>
    </mxGraphModel>
  </diagram>
</mxfile>
